<svg width="302" height="74" viewBox="0 0 302 74" fill="none" xmlns="http://www.w3.org/2000/svg">
<rect width="302" height="74" rx="10" fill="#FFF3CC"/>
<g clip-path="url(#clip0_7_74)">
<path d="M57 47.266V12.4846C57.0008 12.1581 56.9375 11.8346 56.8139 11.5329C56.6904 11.2311 56.5089 10.9569 56.2799 10.726C56.0509 10.4951 55.7789 10.3122 55.4796 10.1876C55.1802 10.063 54.8594 9.99924 54.5356 10H20.8567C18.2428 10.0009 15.7362 11.0482 13.888 12.9115C12.0397 14.7749 11.0009 17.3019 11 19.9371V53.0629C11.0009 55.6981 12.0397 58.2251 13.888 60.0885C15.7362 61.9519 18.2428 62.9991 20.8567 63H54.5356C54.8594 63.0008 55.1802 62.937 55.4796 62.8124C55.7789 62.6878 56.0509 62.5049 56.2799 62.274C56.5089 62.0431 56.6904 61.7689 56.8139 61.4672C56.9375 61.1654 57.0008 60.8419 57 60.5154V58.8599C56.9993 58.489 56.9169 58.123 56.7588 57.7881C56.6007 57.4533 56.3708 57.158 56.0858 56.9237C55.6545 54.3643 55.6545 51.75 56.0858 49.1906C56.3713 48.9593 56.6017 48.6662 56.7599 48.3331C56.9182 48 57.0002 47.6354 57 47.266ZM24.1434 23.8709C24.1437 23.7061 24.2087 23.5483 24.3242 23.4318C24.4398 23.3153 24.5964 23.2497 24.7598 23.2494H46.527C46.6903 23.2497 46.8469 23.3153 46.9625 23.4318C47.078 23.5483 47.1431 23.7061 47.1434 23.8709V25.9415C47.1431 26.1062 47.078 26.2641 46.9625 26.3806C46.8469 26.4971 46.6903 26.5626 46.527 26.5629H24.7586C24.5952 26.5626 24.4386 26.4971 24.3231 26.3806C24.2075 26.2641 24.1425 26.1062 24.1422 25.9415L24.1434 23.8709ZM24.1434 30.4956C24.1437 30.3308 24.2087 30.173 24.3242 30.0565C24.4398 29.94 24.5964 29.8744 24.7598 29.8741H46.527C46.6903 29.8744 46.8469 29.94 46.9625 30.0565C47.078 30.173 47.1431 30.3308 47.1434 30.4956V32.5662C47.1431 32.7309 47.078 32.8888 46.9625 33.0053C46.8469 33.1218 46.6903 33.1873 46.527 33.1877H24.7586C24.5952 33.1873 24.4386 33.1218 24.3231 33.0053C24.2075 32.8888 24.1425 32.7309 24.1422 32.5662L24.1434 30.4956ZM50.1621 56.3753H20.8567C19.9853 56.3753 19.1496 56.0263 18.5334 55.4051C17.9173 54.7839 17.5711 53.9414 17.5711 53.0629C17.5711 52.1845 17.9173 51.3419 18.5334 50.7208C19.1496 50.0996 19.9853 49.7506 20.8567 49.7506H50.1621C49.967 51.9544 49.967 54.1714 50.1621 56.3753Z" fill="#333333"/>
</g>
<path d="M91 31V25.78L88.78 25.51C88.33 25.93 87.91 26.8 87.67 27.73H82.93V13.81C83.62 13.54 84.25 13.18 84.58 12.79L84.28 10.3H77.26L76.96 12.79C77.26 13.18 77.89 13.54 78.61 13.81V27.52C77.89 27.79 77.26 28.12 76.96 28.51L77.26 31H91ZM103.569 26.95C103.569 26.95 102.129 27.91 99.8486 27.91C97.3886 27.91 96.3386 26.98 96.1586 24.46H102.669C104.139 24.46 104.799 23.68 104.799 22.3C104.799 17.05 102.399 15.76 99.0686 15.76C95.5586 15.76 91.8086 17.59 91.8086 23.74C91.8086 28.57 94.2086 31.24 99.0386 31.24C102.999 31.24 104.469 29.35 104.469 29.35L103.569 26.95ZM98.8286 18.82C100.419 18.82 101.259 19.93 100.929 21.79L96.1886 21.97C96.4586 19.6 97.3286 18.82 98.8286 18.82ZM116.991 20.11C117.471 19.15 117.711 17.8 117.621 16.63C116.151 16 114.051 15.76 112.401 15.76C108.711 15.76 106.491 17.62 106.491 20.32C106.491 23.05 108.231 24.13 110.361 24.73L112.731 25.42C114.231 25.84 114.501 26.23 114.501 26.83C114.501 28.09 113.241 28.33 111.861 28.33C111.261 28.33 110.661 28.3 110.151 28.15C110.061 27.58 109.881 27.1 109.641 26.65H107.151C106.671 27.61 106.431 29.11 106.521 30.28C107.781 30.91 110.061 31.24 112.071 31.24C116.631 31.24 118.461 28.9 118.461 26.14C118.461 23.71 117.081 22.51 114.801 21.91L112.431 21.28C110.751 20.83 110.361 20.23 110.361 19.63C110.361 18.85 111.171 18.46 112.341 18.46C112.821 18.46 113.541 18.55 114.021 18.67C114.111 19.24 114.291 19.69 114.531 20.11H116.991ZM126.284 18.31C126.674 18.73 127.244 19.09 127.934 19.33V31.27C127.934 33.55 127.304 34.18 125.954 34.18C125.714 34.18 125.324 34.18 125.114 34.15L124.754 37.09C125.234 37.18 125.954 37.24 126.464 37.24C130.484 37.24 132.134 35.71 132.134 31V15.7C130.454 15.55 128.144 15.64 126.584 16L126.284 18.31ZM127.484 11.68C127.484 13.39 128.444 13.93 129.974 13.93C131.504 13.93 132.494 13.39 132.494 11.68C132.494 9.97 131.504 9.4 129.974 9.4C128.444 9.4 127.484 9.97 127.484 11.68ZM146.137 26.95C146.137 26.95 144.697 27.91 142.417 27.91C139.957 27.91 138.907 26.98 138.727 24.46H145.237C146.707 24.46 147.367 23.68 147.367 22.3C147.367 17.05 144.967 15.76 141.637 15.76C138.127 15.76 134.377 17.59 134.377 23.74C134.377 28.57 136.777 31.24 141.607 31.24C145.567 31.24 147.037 29.35 147.037 29.35L146.137 26.95ZM141.397 18.82C142.987 18.82 143.827 19.93 143.497 21.79L138.757 21.97C139.027 19.6 139.897 18.82 141.397 18.82ZM165.319 27.91C164.839 27.67 164.269 27.52 163.669 27.4V15.7C161.989 15.55 159.679 15.64 158.119 16L157.819 18.31C158.209 18.73 158.779 19.09 159.469 19.33V26.98C158.719 27.55 157.429 27.94 156.439 27.94C154.969 27.94 154.279 27.55 154.279 25.27V15.7C152.599 15.55 150.289 15.64 148.729 16L148.429 18.31C148.819 18.73 149.389 19.09 150.079 19.33V26.26C150.079 29.68 151.309 31.24 154.999 31.24C156.979 31.24 158.869 30.55 159.979 29.74C160.009 30.28 160.369 30.94 160.789 31.24C162.289 31.24 164.029 30.97 165.319 30.28V27.91ZM174.586 21.88H174.166C174.166 21.88 174.016 21.01 173.296 19.96L172.666 19.06C173.116 18.85 173.446 18.58 173.686 18.31L173.386 16H166.486L166.186 18.31C166.606 18.85 167.596 19.33 168.616 19.6L171.256 23.29L168.406 27.46C167.446 27.73 166.546 28.18 166.156 28.69L166.456 31H173.056L173.356 28.69C173.086 28.33 172.576 28.03 171.976 27.76L172.696 26.62C173.296 25.66 173.566 24.61 173.566 24.61H173.986C173.986 24.61 174.256 25.69 174.856 26.68L175.606 27.91C175.126 28.15 174.736 28.39 174.496 28.69L174.796 31H181.696L181.996 28.69C181.576 28.18 180.676 27.73 179.716 27.46L176.896 23.29L179.536 19.6C180.556 19.33 181.546 18.88 181.966 18.31L181.666 16H175.066L174.766 18.31C175.006 18.64 175.456 18.94 175.996 19.18L175.456 20.02C174.796 21.07 174.586 21.88 174.586 21.88ZM197.395 12.01C197.815 12.46 198.565 12.85 199.435 13.09V16.06C198.685 15.88 197.875 15.76 196.915 15.76C193.405 15.76 189.895 17.5 189.895 23.74C189.895 29.11 191.755 31.24 196.045 31.24C197.455 31.24 198.985 30.67 199.825 29.95C199.885 30.43 200.335 31.06 200.725 31.24C202.225 31.24 203.995 30.97 205.285 30.28V27.91C204.805 27.67 204.235 27.49 203.635 27.4V9.4C201.955 9.25 199.255 9.34 197.695 9.7L197.395 12.01ZM196.675 28.18C195.055 28.18 194.215 27.04 194.215 23.56C194.215 20.71 194.815 18.82 196.975 18.82C197.725 18.82 198.565 18.91 199.435 19.12V27.16C198.715 27.85 197.845 28.18 196.675 28.18ZM218.266 26.95C218.266 26.95 216.826 27.91 214.546 27.91C212.086 27.91 211.036 26.98 210.856 24.46H217.366C218.836 24.46 219.496 23.68 219.496 22.3C219.496 17.05 217.096 15.76 213.766 15.76C210.256 15.76 206.506 17.59 206.506 23.74C206.506 28.57 208.906 31.24 213.736 31.24C217.696 31.24 219.166 29.35 219.166 29.35L218.266 26.95ZM213.526 18.82C215.116 18.82 215.956 19.93 215.626 21.79L210.886 21.97C211.156 19.6 212.026 18.82 213.526 18.82ZM76.42 46.01C76.81 46.43 77.38 46.79 78.07 47.03V61.67C77.35 61.94 76.72 62.3 76.42 62.69L76.72 65H83.62L83.92 62.69C83.59 62.3 82.96 61.94 82.27 61.67V43.4C80.59 43.25 78.28 43.34 76.72 43.7L76.42 46.01ZM89.2089 54.92C89.3889 54.5 89.5389 53.57 89.5689 52.97C90.0789 52.82 90.5289 52.79 91.0989 52.79C92.7789 52.79 93.5889 53.57 93.5889 55.13V56.57H90.3189C86.6589 56.57 85.0089 58.34 85.0089 60.83C85.0089 63.74 87.3489 65.24 89.8689 65.24C92.7789 65.24 94.0389 64.1 94.5489 63.35C94.7589 64.46 95.0589 65.24 95.0589 65.24C97.9089 65.24 99.4389 64.52 99.4389 64.52V61.91C98.9589 61.67 98.3889 61.52 97.7889 61.4V55.01C97.7889 51.14 95.8089 49.76 92.1489 49.76C89.6889 49.76 87.2889 50.45 85.7889 51.26C85.6689 52.76 85.8789 54.14 86.2689 54.92H89.2089ZM91.1589 62.18C89.9289 62.18 89.3289 61.43 89.3289 60.47C89.3289 59.45 89.9889 58.82 91.4889 58.82H93.5889V61.28C93.2289 61.64 92.4189 62.18 91.1589 62.18ZM117.899 54.11C118.379 53.15 118.619 51.8 118.529 50.63C117.059 50 114.959 49.76 113.309 49.76C109.619 49.76 107.399 51.62 107.399 54.32C107.399 57.05 109.139 58.13 111.269 58.73L113.639 59.42C115.139 59.84 115.409 60.23 115.409 60.83C115.409 62.09 114.149 62.33 112.769 62.33C112.169 62.33 111.569 62.3 111.059 62.15C110.969 61.58 110.789 61.1 110.549 60.65H108.059C107.579 61.61 107.339 63.11 107.429 64.28C108.689 64.91 110.969 65.24 112.979 65.24C117.539 65.24 119.369 62.9 119.369 60.14C119.369 57.71 117.989 56.51 115.709 55.91L113.339 55.28C111.659 54.83 111.269 54.23 111.269 53.63C111.269 52.85 112.079 52.46 113.249 52.46C113.729 52.46 114.449 52.55 114.929 52.67C115.019 53.24 115.199 53.69 115.439 54.11H117.899ZM137.194 61.91C136.714 61.67 136.144 61.52 135.544 61.4V49.7C133.864 49.55 131.554 49.64 129.994 50L129.694 52.31C130.084 52.73 130.654 53.09 131.344 53.33V60.98C130.594 61.55 129.304 61.94 128.314 61.94C126.844 61.94 126.154 61.55 126.154 59.27V49.7C124.474 49.55 122.164 49.64 120.604 50L120.304 52.31C120.694 52.73 121.264 53.09 121.954 53.33V60.26C121.954 63.68 123.184 65.24 126.874 65.24C128.854 65.24 130.744 64.55 131.854 63.74C131.884 64.28 132.244 64.94 132.664 65.24C134.164 65.24 135.904 64.97 137.194 64.28V61.91ZM148.831 49.88C148.561 49.76 148.201 49.73 147.811 49.73C146.311 49.73 144.781 50.54 143.881 51.59V49.7C142.201 49.55 140.281 49.64 138.721 50L138.421 52.31C138.811 52.73 139.381 53.09 140.071 53.33V61.67C139.351 61.94 138.721 62.3 138.421 62.69L138.721 65H147.301L147.601 62.69C147.001 62.15 145.591 61.67 144.271 61.43V54.56C144.871 53.96 146.191 53.69 147.421 53.69C147.901 53.69 148.351 53.72 148.741 53.78L148.831 49.88ZM159.711 65.18L164.661 53.48C165.501 53.21 166.281 52.79 166.641 52.31L166.341 50H159.741L159.441 52.31C159.741 52.7 160.311 53.06 161.001 53.33L159.411 57.77C158.811 59.42 158.571 60.92 158.571 60.92H158.151C158.151 60.92 157.911 59.36 157.311 57.71L155.691 53.18C156.231 52.94 156.711 52.64 156.981 52.31L156.681 50H149.781L149.481 52.31C149.841 52.79 150.651 53.21 151.491 53.48L156.411 65.18H159.711ZM167.69 52.31C168.08 52.73 168.65 53.09 169.34 53.33V61.67C168.62 61.94 167.99 62.3 167.69 62.69L167.99 65H174.89L175.19 62.69C174.86 62.3 174.23 61.94 173.54 61.67V49.7C171.86 49.55 169.55 49.64 167.99 50L167.69 52.31ZM168.89 45.68C168.89 47.39 169.85 47.93 171.38 47.93C172.91 47.93 173.9 47.39 173.9 45.68C173.9 43.97 172.91 43.4 171.38 43.4C169.85 43.4 168.89 43.97 168.89 45.68ZM188.119 60.95C188.119 60.95 186.679 61.91 184.399 61.91C181.939 61.91 180.889 60.98 180.709 58.46H187.219C188.689 58.46 189.349 57.68 189.349 56.3C189.349 51.05 186.949 49.76 183.619 49.76C180.109 49.76 176.359 51.59 176.359 57.74C176.359 62.57 178.759 65.24 183.589 65.24C187.549 65.24 189.019 63.35 189.019 63.35L188.119 60.95ZM183.379 52.82C184.969 52.82 185.809 53.93 185.479 55.79L180.739 55.97C181.009 53.6 181.879 52.82 183.379 52.82Z" fill="#333333"/>
<rect width="13.9787" height="42.7697" rx="3" transform="matrix(-0.685434 -0.728135 0.685434 -0.728135 251.582 69.1213)" fill="#333333"/>
<rect width="13.9787" height="42.7696" rx="3" transform="matrix(0.685436 -0.728133 0.685436 0.728133 242.103 17.2876)" fill="#333333"/>
<defs>
<clipPath id="clip0_7_74">
<rect width="46" height="53" fill="white" transform="translate(11 10)"/>
</clipPath>
</defs>
</svg>
